<svg width="28" height="28" viewBox="0 0 28 28" fill="none" xmlns="http://www.w3.org/2000/svg">
<mask id="mask0_148_771" style="mask-type:alpha" maskUnits="userSpaceOnUse" x="0" y="0" width="28" height="28">
<path d="M0 0H28V28H0V0Z" fill="#D9D9D9"/>
</mask>
<g mask="url(#mask0_148_771)">
<path d="M2.33337 24.5001V5.54175L8.16671 1.16675L14 5.54175V8.16675H25.6667V24.5001H2.33337ZM4.66671 22.1667H7.00004V19.8334H4.66671V22.1667ZM4.66671 17.5001H7.00004V15.1667H4.66671V17.5001ZM4.66671 12.8334H7.00004V10.5001H4.66671V12.8334ZM4.66671 8.16675H7.00004V5.83342H4.66671V8.16675ZM9.33337 8.16675H11.6667V5.83342H9.33337V8.16675ZM9.33337 22.1667H23.3334V10.5001H9.33337V22.1667ZM16.3334 15.1667V12.8334H21V15.1667H16.3334ZM16.3334 19.8334V17.5001H21V19.8334H16.3334ZM11.6667 15.1667V12.8334H14V15.1667H11.6667ZM11.6667 19.8334V17.5001H14V19.8334H11.6667Z" fill="white"/>
</g>
</svg>
